<svg xmlns="http://www.w3.org/2000/svg" width="512" height="512" viewBox="0 0 512 512">
  <rect width="512" height="512" fill="#000000"/>
  <path d="M160 96h192c17.7 0 32 14.3 32 32v256c0 17.7-14.3 32-32 32H160c-17.7 0-32-14.3-32-32V128c0-17.7 14.3-32 32-32z" fill="#ffffff"/>
  <path d="M200 160h112v16H200z" fill="#000000"/>
  <path d="M200 200h112v16H200z" fill="#000000"/>
  <path d="M200 240h112v16H200z" fill="#000000"/>
  <path d="M200 280h80v16H200z" fill="#000000"/>
  <path d="M200 320h64v16H200z" fill="#000000"/>
  <path d="M320 320h32v16h-32z" fill="#000000"/>
  <path d="M280 320h24v16h-24z" fill="#000000"/>
  <path d="M288 256l16 16 32-32" stroke="#000000" stroke-width="8" fill="none"/>
</svg>
